<?xml version="1.0" encoding="UTF-8" standalone="no"?>
<!-- Created with Inkscape (http://www.inkscape.org/) -->

<svg
   width="121.50342mm"
   height="352.75879mm"
   viewBox="0 0 121.50342 352.75879"
   version="1.1"
   id="svg1"
   inkscape:version="1.3.2 (1:1.3.2+202311252150+091e20ef0f)"
   xml:space="preserve"
   sodipodi:docname="MenuIcon.svg"
   inkscape:export-filename="MenuIcon.png"
   inkscape:export-xdpi="31.584213"
   inkscape:export-ydpi="31.584213"
   xmlns:inkscape="http://www.inkscape.org/namespaces/inkscape"
   xmlns:sodipodi="http://sodipodi.sourceforge.net/DTD/sodipodi-0.dtd"
   xmlns="http://www.w3.org/2000/svg"
   xmlns:svg="http://www.w3.org/2000/svg"><sodipodi:namedview
     id="namedview1"
     pagecolor="#e6e6e6"
     bordercolor="#666666"
     borderopacity="1.0"
     inkscape:showpageshadow="2"
     inkscape:pageopacity="0.0"
     inkscape:pagecheckerboard="0"
     inkscape:deskcolor="#d1d1d1"
     inkscape:document-units="mm"
     showguides="true"
     inkscape:zoom="0.22627417"
     inkscape:cx="627.55727"
     inkscape:cy="570.10484"
     inkscape:window-width="1920"
     inkscape:window-height="1023"
     inkscape:window-x="0"
     inkscape:window-y="33"
     inkscape:window-maximized="1"
     inkscape:current-layer="layer1"
     showgrid="false" /><defs
     id="defs1" /><g
     inkscape:label="Layer 1"
     inkscape:groupmode="layer"
     id="layer1"
     transform="translate(19.366142,29.34584)"><g
       id="text49"
       style="font-size:50px;line-height:1.25;font-family:'Lucy Said Ok Personal Use';-inkscape-font-specification:'Lucy Said Ok Personal Use';stroke-width:0.264583"
       aria-label="0100&#10;0001&#10;0110&#10;1110&#10;0110&#10;0100"
       inkscape:label="black text"><path
         style="font-family:System-ui;-inkscape-font-specification:System-ui"
         d="m -6.768486,-25.43959 q -3.808594,0 -5.737305,3.759766 -1.904297,3.735352 -1.904297,11.254883 0,7.4951171 1.904297,11.25488275 1.928711,3.73535155 5.737305,3.73535155 3.8330078,0 5.7373047,-3.73535155 1.9287109,-3.75976565 1.9287109,-11.25488275 0,-7.519531 -1.9287109,-11.254883 -1.9042969,-3.759766 -5.7373047,-3.759766 z m 0,-3.90625 q 6.12792966,0 9.3505859,4.858399 3.2470703,4.833984 3.2470703,14.0625 0,9.2041015 -3.2470703,14.0624999 -3.22265624,4.8339844 -9.3505859,4.8339844 -6.12793,0 -9.375,-4.8339844 -3.222656,-4.8583984 -3.222656,-14.0624999 0,-9.228516 3.222656,-14.0625 3.24707,-4.858399 9.375,-4.858399 z M 15.350655,3.6131449 h 8.05664 V -24.194472 l -8.764648,1.757812 v -4.492187 l 8.71582,-1.757813 h 4.931641 V 3.6131449 h 8.05664 V 7.7635355 H 15.350655 Z M 56.854561,-25.43959 q -3.808594,0 -5.737305,3.759766 -1.904297,3.735352 -1.904297,11.254883 0,7.4951171 1.904297,11.25488275 1.928711,3.73535155 5.737305,3.73535155 3.833008,0 5.737305,-3.73535155 1.92871,-3.75976565 1.92871,-11.25488275 0,-7.519531 -1.92871,-11.254883 -1.904297,-3.759766 -5.737305,-3.759766 z m 0,-3.90625 q 6.12793,0 9.350586,4.858399 3.24707,4.833984 3.24707,14.0625 0,9.2041015 -3.24707,14.0624999 -3.222656,4.8339844 -9.350586,4.8339844 -6.12793,0 -9.375,-4.8339844 -3.222656,-4.8583984 -3.222656,-14.0624999 0,-9.228516 3.222656,-14.0625 3.24707,-4.858399 9.375,-4.858399 z m 31.811523,3.90625 q -3.808593,0 -5.737304,3.759766 -1.904297,3.735352 -1.904297,11.254883 0,7.4951171 1.904297,11.25488275 1.928711,3.73535155 5.737304,3.73535155 3.833008,0 5.737305,-3.73535155 Q 96.3321,-2.9298239 96.3321,-10.424941 q 0,-7.519531 -1.928711,-11.254883 -1.904297,-3.759766 -5.737305,-3.759766 z m 0,-3.90625 q 6.12793,0 9.350586,4.858399 3.24707,4.833984 3.24707,14.0625 0,9.2041015 -3.24707,14.0624999 -3.222656,4.8339844 -9.350586,4.8339844 -6.127929,0 -9.375,-4.8339844 -3.222656,-4.8583984 -3.222656,-14.0624999 0,-9.228516 3.222656,-14.0625 3.247071,-4.858399 9.375,-4.858399 z"
         id="path1" /><path
         style="font-family:System-ui;-inkscape-font-specification:System-ui"
         d="m -6.768486,37.548692 q -3.808594,0 -5.737305,3.759765 -1.904297,3.735352 -1.904297,11.254883 0,7.495117 1.904297,11.254883 1.928711,3.735352 5.737305,3.735352 3.8330078,0 5.7373047,-3.735352 1.9287109,-3.759766 1.9287109,-11.254883 0,-7.519531 -1.9287109,-11.254883 -1.9042969,-3.759765 -5.7373047,-3.759765 z m 0,-3.90625 q 6.12792966,0 9.3505859,4.858398 3.2470703,4.833985 3.2470703,14.0625 0,9.204102 -3.2470703,14.0625 -3.22265624,4.833985 -9.3505859,4.833985 -6.12793,0 -9.375,-4.833985 -3.222656,-4.858398 -3.222656,-14.0625 0,-9.228515 3.222656,-14.0625 3.24707,-4.858398 9.375,-4.858398 z m 31.811523,3.90625 q -3.808593,0 -5.737304,3.759765 -1.904297,3.735352 -1.904297,11.254883 0,7.495117 1.904297,11.254883 1.928711,3.735352 5.737304,3.735352 3.833008,0 5.737305,-3.735352 1.928711,-3.759766 1.928711,-11.254883 0,-7.519531 -1.928711,-11.254883 -1.904297,-3.759765 -5.737305,-3.759765 z m 0,-3.90625 q 6.12793,0 9.350586,4.858398 3.247071,4.833985 3.247071,14.0625 0,9.204102 -3.247071,14.0625 -3.222656,4.833985 -9.350586,4.833985 -6.127929,0 -9.375,-4.833985 -3.222656,-4.858398 -3.222656,-14.0625 0,-9.228515 3.222656,-14.0625 3.247071,-4.858398 9.375,-4.858398 z m 31.811524,3.90625 q -3.808594,0 -5.737305,3.759765 -1.904297,3.735352 -1.904297,11.254883 0,7.495117 1.904297,11.254883 1.928711,3.735352 5.737305,3.735352 3.833008,0 5.737305,-3.735352 1.92871,-3.759766 1.92871,-11.254883 0,-7.519531 -1.92871,-11.254883 -1.904297,-3.759765 -5.737305,-3.759765 z m 0,-3.90625 q 6.12793,0 9.350586,4.858398 3.24707,4.833985 3.24707,14.0625 0,9.204102 -3.24707,14.0625 -3.222656,4.833985 -9.350586,4.833985 -6.12793,0 -9.375,-4.833985 -3.222656,-4.858398 -3.222656,-14.0625 0,-9.228515 3.222656,-14.0625 3.24707,-4.858398 9.375,-4.858398 z m 22.11914,32.958984 h 8.056641 V 38.793809 l -8.764648,1.757812 v -4.492187 l 8.71582,-1.757813 h 4.931641 v 32.299805 h 8.05664 v 4.150391 H 78.973701 Z"
         id="path2" /><path
         style="font-family:System-ui;-inkscape-font-specification:System-ui"
         d="m -6.768486,100.53697 q -3.808594,0 -5.737305,3.75977 -1.904297,3.73535 -1.904297,11.25488 0,7.49512 1.904297,11.25488 1.928711,3.73536 5.737305,3.73536 3.8330078,0 5.7373047,-3.73536 1.9287109,-3.75976 1.9287109,-11.25488 0,-7.51953 -1.9287109,-11.25488 -1.9042969,-3.75977 -5.7373047,-3.75977 z m 0,-3.906247 q 6.12792966,0 9.3505859,4.858397 3.2470703,4.83399 3.2470703,14.0625 0,9.2041 -3.2470703,14.0625 -3.22265624,4.83399 -9.3505859,4.83399 -6.12793,0 -9.375,-4.83399 -3.222656,-4.8584 -3.222656,-14.0625 0,-9.22851 3.222656,-14.0625 3.24707,-4.858397 9.375,-4.858397 z m 22.119141,32.958987 h 8.05664 v -27.80762 l -8.764648,1.75781 v -4.492185 l 8.71582,-1.757812 h 4.931641 v 32.299807 h 8.05664 v 4.15039 H 15.350655 Z m 31.811523,0 h 8.056641 v -27.80762 l -8.764649,1.75781 v -4.492185 l 8.715821,-1.757812 h 4.93164 v 32.299807 h 8.056641 v 4.15039 H 47.162178 Z m 41.503906,-29.05274 q -3.808593,0 -5.737304,3.75977 -1.904297,3.73535 -1.904297,11.25488 0,7.49512 1.904297,11.25488 1.928711,3.73536 5.737304,3.73536 3.833008,0 5.737305,-3.73536 1.928711,-3.75976 1.928711,-11.25488 0,-7.51953 -1.928711,-11.25488 -1.904297,-3.75977 -5.737305,-3.75977 z m 0,-3.906247 q 6.12793,0 9.350586,4.858397 3.24707,4.83399 3.24707,14.0625 0,9.2041 -3.24707,14.0625 -3.222656,4.83399 -9.350586,4.83399 -6.127929,0 -9.375,-4.83399 -3.222656,-4.8584 -3.222656,-14.0625 0,-9.22851 3.222656,-14.0625 3.247071,-4.858397 9.375,-4.858397 z"
         id="path3" /><path
         style="font-family:System-ui;-inkscape-font-specification:System-ui"
         d="m -16.460869,192.57799 h 8.0566408 v -27.80762 l -8.7646488,1.75781 V 162.036 l 8.7158207,-1.75782 h 4.9316406 v 32.29981 h 8.0566406 v 4.15039 H -16.460869 Z m 31.811524,0 h 8.05664 v -27.80762 l -8.764648,1.75781 V 162.036 l 8.71582,-1.75782 h 4.931641 v 32.29981 h 8.05664 v 4.15039 H 15.350655 Z m 31.811523,0 h 8.056641 v -27.80762 l -8.764649,1.75781 V 162.036 l 8.715821,-1.75782 h 4.93164 v 32.29981 h 8.056641 v 4.15039 H 47.162178 Z m 41.503906,-29.05274 q -3.808593,0 -5.737304,3.75977 -1.904297,3.73535 -1.904297,11.25488 0,7.49512 1.904297,11.25489 1.928711,3.73535 5.737304,3.73535 3.833008,0 5.737305,-3.73535 1.928711,-3.75977 1.928711,-11.25489 0,-7.51953 -1.928711,-11.25488 -1.904297,-3.75977 -5.737305,-3.75977 z m 0,-3.90625 q 6.12793,0 9.350586,4.8584 3.24707,4.83399 3.24707,14.0625 0,9.2041 -3.24707,14.0625 -3.222656,4.83399 -9.350586,4.83399 -6.127929,0 -9.375,-4.83399 -3.222656,-4.8584 -3.222656,-14.0625 0,-9.22851 3.222656,-14.0625 3.247071,-4.8584 9.375,-4.8584 z"
         id="path4" /><path
         style="font-family:System-ui;-inkscape-font-specification:System-ui"
         d="m -6.768486,226.51354 q -3.808594,0 -5.737305,3.75976 -1.904297,3.73535 -1.904297,11.25488 0,7.49512 1.904297,11.25489 1.928711,3.73535 5.737305,3.73535 3.8330078,0 5.7373047,-3.73535 1.9287109,-3.75977 1.9287109,-11.25489 0,-7.51953 -1.9287109,-11.25488 -1.9042969,-3.75976 -5.7373047,-3.75976 z m 0,-3.90625 q 6.12792966,0 9.3505859,4.85839 3.2470703,4.83399 3.2470703,14.0625 0,9.20411 -3.2470703,14.0625 -3.22265624,4.83399 -9.3505859,4.83399 -6.12793,0 -9.375,-4.83399 -3.222656,-4.85839 -3.222656,-14.0625 0,-9.22851 3.222656,-14.0625 3.24707,-4.85839 9.375,-4.85839 z m 22.119141,32.95898 h 8.05664 v -27.80762 l -8.764648,1.75782 v -4.49219 l 8.71582,-1.75781 h 4.931641 v 32.2998 h 8.05664 v 4.15039 H 15.350655 Z m 31.811523,0 h 8.056641 v -27.80762 l -8.764649,1.75782 v -4.49219 l 8.715821,-1.75781 h 4.93164 v 32.2998 h 8.056641 v 4.15039 H 47.162178 Z m 41.503906,-29.05273 q -3.808593,0 -5.737304,3.75976 -1.904297,3.73535 -1.904297,11.25488 0,7.49512 1.904297,11.25489 1.928711,3.73535 5.737304,3.73535 3.833008,0 5.737305,-3.73535 1.928711,-3.75977 1.928711,-11.25489 0,-7.51953 -1.928711,-11.25488 -1.904297,-3.75976 -5.737305,-3.75976 z m 0,-3.90625 q 6.12793,0 9.350586,4.85839 3.24707,4.83399 3.24707,14.0625 0,9.20411 -3.24707,14.0625 -3.222656,4.83399 -9.350586,4.83399 -6.127929,0 -9.375,-4.83399 -3.222656,-4.85839 -3.222656,-14.0625 0,-9.22851 3.222656,-14.0625 3.247071,-4.85839 9.375,-4.85839 z"
         id="path5" /><path
         style="font-family:System-ui;-inkscape-font-specification:System-ui"
         d="m -6.768486,289.50182 q -3.808594,0 -5.737305,3.75976 -1.904297,3.73535 -1.904297,11.25489 0,7.49511 1.904297,11.25488 1.928711,3.73535 5.737305,3.73535 3.8330078,0 5.7373047,-3.73535 1.9287109,-3.75977 1.9287109,-11.25488 0,-7.51954 -1.9287109,-11.25489 -1.9042969,-3.75976 -5.7373047,-3.75976 z m 0,-3.90625 q 6.12792966,0 9.3505859,4.8584 3.2470703,4.83398 3.2470703,14.0625 0,9.2041 -3.2470703,14.0625 -3.22265624,4.83398 -9.3505859,4.83398 -6.12793,0 -9.375,-4.83398 -3.222656,-4.8584 -3.222656,-14.0625 0,-9.22852 3.222656,-14.0625 3.24707,-4.8584 9.375,-4.8584 z m 22.119141,32.95898 h 8.05664 v -27.80762 l -8.764648,1.75782 v -4.49219 l 8.71582,-1.75781 h 4.931641 v 32.2998 h 8.05664 v 4.15039 H 15.350655 Z m 41.503906,-29.05273 q -3.808594,0 -5.737305,3.75976 -1.904297,3.73535 -1.904297,11.25489 0,7.49511 1.904297,11.25488 1.928711,3.73535 5.737305,3.73535 3.833008,0 5.737305,-3.73535 1.92871,-3.75977 1.92871,-11.25488 0,-7.51954 -1.92871,-11.25489 -1.904297,-3.75976 -5.737305,-3.75976 z m 0,-3.90625 q 6.12793,0 9.350586,4.8584 3.24707,4.83398 3.24707,14.0625 0,9.2041 -3.24707,14.0625 -3.222656,4.83398 -9.350586,4.83398 -6.12793,0 -9.375,-4.83398 -3.222656,-4.8584 -3.222656,-14.0625 0,-9.22852 3.222656,-14.0625 3.24707,-4.8584 9.375,-4.8584 z m 31.811523,3.90625 q -3.808593,0 -5.737304,3.75976 -1.904297,3.73535 -1.904297,11.25489 0,7.49511 1.904297,11.25488 1.928711,3.73535 5.737304,3.73535 3.833008,0 5.737305,-3.73535 1.928711,-3.75977 1.928711,-11.25488 0,-7.51954 -1.928711,-11.25489 -1.904297,-3.75976 -5.737305,-3.75976 z m 0,-3.90625 q 6.12793,0 9.350586,4.8584 3.24707,4.83398 3.24707,14.0625 0,9.2041 -3.24707,14.0625 -3.222656,4.83398 -9.350586,4.83398 -6.127929,0 -9.375,-4.83398 -3.222656,-4.8584 -3.222656,-14.0625 0,-9.22852 3.222656,-14.0625 3.247071,-4.8584 9.375,-4.8584 z"
         id="path6" /></g><path
       style="font-size:50px;line-height:1.25;font-family:System-ui;-inkscape-font-specification:System-ui;fill:#ff0000;stroke-width:0.264583"
       d="m -15.587332,192.82196 h 8.0566409 v -27.80762 l -8.7646489,1.75782 v -4.49219 l 8.7158207,-1.75781 h 4.9316407 v 32.2998 H 5.408762 v 4.15039 h -20.996094 z m 31.811524,0 h 8.05664 v -27.80762 l -8.764648,1.75782 v -4.49219 l 8.71582,-1.75781 h 4.931641 v 32.2998 h 8.05664 v 4.15039 H 16.224192 Z m 31.811523,0 h 8.056641 v -27.80762 l -8.764649,1.75782 v -4.49219 l 8.715821,-1.75781 h 4.93164 v 32.2998 h 8.056641 v 4.15039 H 48.035715 Z m 41.503906,-29.05273 q -3.808593,0 -5.737304,3.75976 -1.904297,3.73535 -1.904297,11.25488 0,7.49512 1.904297,11.25489 1.928711,3.73535 5.737304,3.73535 3.833008,0 5.737305,-3.73535 1.928711,-3.75977 1.928711,-11.25489 0,-7.51953 -1.928711,-11.25488 -1.904297,-3.75976 -5.737305,-3.75976 z m 0,-3.90625 q 6.12793,0 9.350586,4.85839 3.247073,4.83399 3.247073,14.0625 0,9.20411 -3.247073,14.0625 -3.222656,4.83399 -9.350586,4.83399 -6.127929,0 -9.375,-4.83399 -3.222656,-4.85839 -3.222656,-14.0625 0,-9.22851 3.222656,-14.0625 3.247071,-4.85839 9.375,-4.85839 z"
       id="text17"
       aria-label="1110"
       inkscape:label="red text" /><g
       id="g24"
       inkscape:label="pencil"
       transform="rotate(18.771817,98.603971,-146.39043)"><path
         id="path27"
         style="fill:none;stroke:#f9f9f9;stroke-width:6;stroke-linecap:round;stroke-dasharray:none;stroke-opacity:1"
         inkscape:label="halo"
         d="m 142.17002,160.85732 29.39484,-82.323769 c 1.40355,-3.930807 -0.63093,-8.225052 -4.56174,-9.628605 L 134.10514,57.15827 c -3.9308,-1.403549 -8.22505,0.630936 -9.6286,4.561743 L 95.081697,144.04379 m 0.03167,0.0174 8.834963,49.49558 38.1857,-32.70621"
         sodipodi:nodetypes="csssscccc" /><path
         id="rect21"
         style="fill:#ff0000;stroke:#000000;stroke-width:2;stroke-linecap:round;stroke-dasharray:none;stroke-opacity:1"
         d="m 134.10514,57.15827 c -3.93081,-1.403552 -8.22505,0.630928 -9.6286,4.561743 l -1.46056,4.090468 -1.46038,4.089983 -2.53361,7.095659 7.09518,2.53343 32.89797,11.746677 7.09517,2.53343 2.53361,-7.09566 1.46038,-4.089982 1.46056,-4.090468 c 1.40355,-3.930815 -0.63093,-8.225051 -4.56174,-9.628604 z"
         inkscape:label="pencil eraser" /><path
         id="rect22"
         style="fill:#999999;stroke:#000000;stroke-width:2;stroke-linecap:round;stroke-dasharray:none;stroke-opacity:1"
         inkscape:label="metal ring"
         d="m 119.02199,76.996123 47.08832,16.813537 -1.68135,4.708827 -47.08832,-16.813536 z" /><path
         id="rect23"
         style="fill:#ffcc00;stroke:#000000;stroke-width:2;stroke-linecap:round;stroke-dasharray:none;stroke-opacity:1"
         inkscape:label="pencil body"
         d="M 117.34064,81.704951 164.42896,98.518487 142.17004,160.85726 95.081718,144.04373 Z" /><path
         style="fill:#deaa87;stroke:#000000;stroke-width:2;stroke-linecap:butt;stroke-linejoin:miter;stroke-dasharray:none;stroke-opacity:1"
         d="m 95.113732,144.0609 8.834678,49.49561 38.18593,-32.70625 z"
         id="path23"
         inkscape:label="wood tip" /><path
         style="fill:#1a1a1a;stroke:#000000;stroke-width:2;stroke-linecap:butt;stroke-linejoin:miter;stroke-dasharray:none;stroke-opacity:1"
         d="m 99.531068,168.80871 23.510302,8.39468 -19.09297,16.35306 z"
         id="path24"
         inkscape:label="pencil tip" /><path
         style="fill:none;stroke:#000000;stroke-width:2;stroke-linecap:butt;stroke-linejoin:miter;stroke-dasharray:none;stroke-opacity:1"
         d="M 128.87919,85.824952 106.62027,148.16373"
         id="path25" /><path
         style="fill:none;stroke:#000000;stroke-width:2;stroke-linecap:butt;stroke-linejoin:miter;stroke-dasharray:none;stroke-opacity:1"
         d="M 152.89038,94.398479 130.63146,156.73726"
         id="path26" /></g></g></svg>
