<?xml version="1.0" encoding="UTF-8" standalone="no"?>
<!-- Created with Inkscape (http://www.inkscape.org/) -->

<svg
   width="247.87598mm"
   height="226.78223mm"
   viewBox="0 0 247.87598 226.78223"
   version="1.1"
   id="svg1"
   inkscape:version="1.3.2 (1:1.3.2+202311252150+091e20ef0f)"
   xml:space="preserve"
   sodipodi:docname="PluginIcon.svg"
   xmlns:inkscape="http://www.inkscape.org/namespaces/inkscape"
   xmlns:sodipodi="http://sodipodi.sourceforge.net/DTD/sodipodi-0.dtd"
   xmlns="http://www.w3.org/2000/svg"
   xmlns:svg="http://www.w3.org/2000/svg"><sodipodi:namedview
     id="namedview1"
     pagecolor="#e6e6e6"
     bordercolor="#666666"
     borderopacity="1.0"
     inkscape:showpageshadow="2"
     inkscape:pageopacity="0.0"
     inkscape:pagecheckerboard="0"
     inkscape:deskcolor="#d1d1d1"
     inkscape:document-units="mm"
     showguides="true"
     inkscape:zoom="0.32"
     inkscape:cx="1173.4375"
     inkscape:cy="-121.875"
     inkscape:window-width="1920"
     inkscape:window-height="1023"
     inkscape:window-x="0"
     inkscape:window-y="33"
     inkscape:window-maximized="1"
     inkscape:current-layer="layer1" /><defs
     id="defs1" /><g
     inkscape:label="Layer 1"
     inkscape:groupmode="layer"
     id="layer1"
     transform="translate(17.317719,-34.772614)"><g
       id="text49"
       style="font-size:50px;line-height:1.25;font-family:'Lucy Said Ok Personal Use';-inkscape-font-specification:'Lucy Said Ok Personal Use';stroke-width:0.264583"
       aria-label="01000001&#10;01101110&#10;&#10;00100000"><path
         style="font-family:System-ui;-inkscape-font-specification:System-ui"
         d="m -4.7200623,38.678864 q -3.8085937,0 -5.7373047,3.759765 -1.904297,3.735352 -1.904297,11.254883 0,7.495117 1.904297,11.254883 1.928711,3.735351 5.7373047,3.735351 3.83300786,0 5.7373047,-3.735351 1.928711,-3.759766 1.928711,-11.254883 0,-7.519531 -1.928711,-11.254883 -1.90429684,-3.759765 -5.7373047,-3.759765 z m 0,-3.90625 q 6.1279297,0 9.350586,4.858398 3.2470703,4.833984 3.2470703,14.0625 0,9.204102 -3.2470703,14.0625 -3.2226563,4.833984 -9.350586,4.833984 -6.1279297,0 -9.3749997,-4.833984 -3.222657,-4.858398 -3.222657,-14.0625 0,-9.228516 3.222657,-14.0625 3.24707,-4.858398 9.3749997,-4.858398 z M 17.399078,67.731598 h 8.056641 V 39.923981 l -8.764648,1.757812 v -4.492187 l 8.71582,-1.757813 h 4.93164 v 32.299805 h 8.056641 v 4.150391 H 17.399078 Z M 58.902985,38.678864 q -3.808594,0 -5.737305,3.759765 -1.904297,3.735352 -1.904297,11.254883 0,7.495117 1.904297,11.254883 1.928711,3.735351 5.737305,3.735351 3.833007,0 5.737304,-3.735351 Q 66.569,61.188629 66.569,53.693512 q 0,-7.519531 -1.928711,-11.254883 -1.904297,-3.759765 -5.737304,-3.759765 z m 0,-3.90625 q 6.127929,0 9.350586,4.858398 3.24707,4.833984 3.24707,14.0625 0,9.204102 -3.24707,14.0625 -3.222657,4.833984 -9.350586,4.833984 -6.12793,0 -9.375,-4.833984 -3.222657,-4.858398 -3.222657,-14.0625 0,-9.228516 3.222657,-14.0625 3.24707,-4.858398 9.375,-4.858398 z m 31.811523,3.90625 q -3.808594,0 -5.737305,3.759765 -1.904297,3.735352 -1.904297,11.254883 0,7.495117 1.904297,11.254883 1.928711,3.735351 5.737305,3.735351 3.833008,0 5.737305,-3.735351 1.928711,-3.759766 1.928711,-11.254883 0,-7.519531 -1.928711,-11.254883 -1.904297,-3.759765 -5.737305,-3.759765 z m 0,-3.90625 q 6.12793,0 9.350582,4.858398 3.24707,4.833984 3.24707,14.0625 0,9.204102 -3.24707,14.0625 -3.222652,4.833984 -9.350582,4.833984 -6.12793,0 -9.375,-4.833984 -3.222656,-4.858398 -3.222656,-14.0625 0,-9.228516 3.222656,-14.0625 3.24707,-4.858398 9.375,-4.858398 z m 31.811522,3.90625 q -3.80859,0 -5.7373,3.759765 -1.9043,3.735352 -1.9043,11.254883 0,7.495117 1.9043,11.254883 1.92871,3.735351 5.7373,3.735351 3.83301,0 5.73731,-3.735351 1.92871,-3.759766 1.92871,-11.254883 0,-7.519531 -1.92871,-11.254883 -1.9043,-3.759765 -5.73731,-3.759765 z m 0,-3.90625 q 6.12793,0 9.35059,4.858398 3.24707,4.833984 3.24707,14.0625 0,9.204102 -3.24707,14.0625 -3.22266,4.833984 -9.35059,4.833984 -6.12793,0 -9.375,-4.833984 -3.22265,-4.858398 -3.22265,-14.0625 0,-9.228516 3.22265,-14.0625 3.24707,-4.858398 9.375,-4.858398 z m 31.81152,3.90625 q -3.80859,0 -5.7373,3.759765 -1.9043,3.735352 -1.9043,11.254883 0,7.495117 1.9043,11.254883 1.92871,3.735351 5.7373,3.735351 3.83301,0 5.73731,-3.735351 1.92871,-3.759766 1.92871,-11.254883 0,-7.519531 -1.92871,-11.254883 -1.9043,-3.759765 -5.73731,-3.759765 z m 0,-3.90625 q 6.12793,0 9.35059,4.858398 3.24707,4.833984 3.24707,14.0625 0,9.204102 -3.24707,14.0625 -3.22266,4.833984 -9.35059,4.833984 -6.12792,0 -9.375,-4.833984 -3.22265,-4.858398 -3.22265,-14.0625 0,-9.228516 3.22265,-14.0625 3.24708,-4.858398 9.375,-4.858398 z m 31.81153,3.90625 q -3.8086,0 -5.73731,3.759765 -1.90429,3.735352 -1.90429,11.254883 0,7.495117 1.90429,11.254883 1.92871,3.735351 5.73731,3.735351 3.83301,0 5.7373,-3.735351 1.92871,-3.759766 1.92871,-11.254883 0,-7.519531 -1.92871,-11.254883 -1.90429,-3.759765 -5.7373,-3.759765 z m 0,-3.90625 q 6.12793,0 9.35058,4.858398 3.24707,4.833984 3.24707,14.0625 0,9.204102 -3.24707,14.0625 -3.22265,4.833984 -9.35058,4.833984 -6.12793,0 -9.375,-4.833984 -3.22266,-4.858398 -3.22266,-14.0625 0,-9.228516 3.22266,-14.0625 3.24707,-4.858398 9.375,-4.858398 z m 22.11914,32.958984 h 8.05664 V 39.923981 l -8.76465,1.757812 v -4.492187 l 8.71582,-1.757813 h 4.93164 v 32.299805 h 8.05664 v 4.150391 h -20.99609 z"
         id="path53" /><path
         style="font-family:System-ui;-inkscape-font-specification:System-ui"
         d="m -4.7200623,101.66714 q -3.8085937,0 -5.7373047,3.75977 -1.904297,3.73535 -1.904297,11.25488 0,7.49512 1.904297,11.25489 1.928711,3.73535 5.7373047,3.73535 3.83300786,0 5.7373047,-3.73535 1.928711,-3.75977 1.928711,-11.25489 0,-7.51953 -1.928711,-11.25488 -1.90429684,-3.75977 -5.7373047,-3.75977 z m 0,-3.906245 q 6.1279297,0 9.350586,4.858395 3.2470703,4.83399 3.2470703,14.0625 0,9.2041 -3.2470703,14.0625 -3.2226563,4.83399 -9.350586,4.83399 -6.1279297,0 -9.3749997,-4.83399 -3.222657,-4.8584 -3.222657,-14.0625 0,-9.22851 3.222657,-14.0625 3.24707,-4.858395 9.3749997,-4.858395 z M 17.399078,130.71988 h 8.056641 v -27.80762 l -8.764648,1.75781 v -4.49218 l 8.71582,-1.757816 h 4.93164 v 32.299806 h 8.056641 v 4.15039 H 17.399078 Z m 31.811524,0 h 8.05664 v -27.80762 l -8.764648,1.75781 v -4.49218 l 8.71582,-1.757816 h 4.931641 v 32.299806 h 8.056641 v 4.15039 H 49.210602 Z m 41.503906,-29.05274 q -3.808594,0 -5.737305,3.75977 -1.904297,3.73535 -1.904297,11.25488 0,7.49512 1.904297,11.25489 1.928711,3.73535 5.737305,3.73535 3.833008,0 5.737305,-3.73535 1.928711,-3.75977 1.928711,-11.25489 0,-7.51953 -1.928711,-11.25488 -1.904297,-3.75977 -5.737305,-3.75977 z m 0,-3.906245 q 6.12793,0 9.350582,4.858395 3.24707,4.83399 3.24707,14.0625 0,9.2041 -3.24707,14.0625 -3.222652,4.83399 -9.350582,4.83399 -6.12793,0 -9.375,-4.83399 -3.222656,-4.8584 -3.222656,-14.0625 0,-9.22851 3.222656,-14.0625 3.24707,-4.858395 9.375,-4.858395 z m 22.119142,32.958985 h 8.05664 v -27.80762 l -8.76465,1.75781 v -4.49218 l 8.71582,-1.757816 h 4.93164 v 32.299806 h 8.05664 v 4.15039 h -20.99609 z m 31.81152,0 h 8.05664 v -27.80762 l -8.76465,1.75781 v -4.49218 l 8.71582,-1.757816 h 4.93165 v 32.299806 h 8.05664 v 4.15039 h -20.9961 z m 31.81153,0 h 8.05664 v -27.80762 l -8.76465,1.75781 v -4.49218 l 8.71582,-1.757816 h 4.93164 v 32.299806 h 8.05664 v 4.15039 H 176.4567 Z m 41.5039,-29.05274 q -3.80859,0 -5.7373,3.75977 -1.9043,3.73535 -1.9043,11.25488 0,7.49512 1.9043,11.25489 1.92871,3.73535 5.7373,3.73535 3.83301,0 5.73731,-3.73535 1.92871,-3.75977 1.92871,-11.25489 0,-7.51953 -1.92871,-11.25488 -1.9043,-3.75977 -5.73731,-3.75977 z m 0,-3.906245 q 6.12793,0 9.35059,4.858395 3.24707,4.83399 3.24707,14.0625 0,9.2041 -3.24707,14.0625 -3.22266,4.83399 -9.35059,4.83399 -6.12793,0 -9.375,-4.83399 -3.22265,-4.8584 -3.22265,-14.0625 0,-9.22851 3.22265,-14.0625 3.24707,-4.858395 9.375,-4.858395 z"
         id="path54" /><path
         style="font-family:System-ui;-inkscape-font-specification:System-ui"
         d="m -4.7200623,227.64371 q -3.8085937,0 -5.7373047,3.75976 -1.904297,3.73535 -1.904297,11.25489 0,7.49511 1.904297,11.25488 1.928711,3.73535 5.7373047,3.73535 3.83300786,0 5.7373047,-3.73535 1.928711,-3.75977 1.928711,-11.25488 0,-7.51954 -1.928711,-11.25489 -1.90429684,-3.75976 -5.7373047,-3.75976 z m 0,-3.90625 q 6.1279297,0 9.350586,4.8584 3.2470703,4.83398 3.2470703,14.0625 0,9.2041 -3.2470703,14.0625 -3.2226563,4.83398 -9.350586,4.83398 -6.1279297,0 -9.3749997,-4.83398 -3.222657,-4.8584 -3.222657,-14.0625 0,-9.22852 3.222657,-14.0625 3.24707,-4.8584 9.3749997,-4.8584 z m 31.8115233,3.90625 q -3.808594,0 -5.737305,3.75976 -1.904296,3.73535 -1.904296,11.25489 0,7.49511 1.904296,11.25488 1.928711,3.73535 5.737305,3.73535 3.833008,0 5.737305,-3.73535 1.928711,-3.75977 1.928711,-11.25488 0,-7.51954 -1.928711,-11.25489 -1.904297,-3.75976 -5.737305,-3.75976 z m 0,-3.90625 q 6.12793,0 9.350586,4.8584 3.24707,4.83398 3.24707,14.0625 0,9.2041 -3.24707,14.0625 -3.222656,4.83398 -9.350586,4.83398 -6.12793,0 -9.375,-4.83398 -3.222656,-4.8584 -3.222656,-14.0625 0,-9.22852 3.222656,-14.0625 3.24707,-4.8584 9.375,-4.8584 z m 22.119141,32.95898 h 8.05664 v -27.80762 l -8.764648,1.75782 v -4.49219 l 8.71582,-1.75781 h 4.931641 v 32.2998 h 8.056641 v 4.15039 H 49.210602 Z m 41.503906,-29.05273 q -3.808594,0 -5.737305,3.75976 -1.904297,3.73535 -1.904297,11.25489 0,7.49511 1.904297,11.25488 1.928711,3.73535 5.737305,3.73535 3.833008,0 5.737305,-3.73535 1.928711,-3.75977 1.928711,-11.25488 0,-7.51954 -1.928711,-11.25489 -1.904297,-3.75976 -5.737305,-3.75976 z m 0,-3.90625 q 6.12793,0 9.350582,4.8584 3.24707,4.83398 3.24707,14.0625 0,9.2041 -3.24707,14.0625 -3.222652,4.83398 -9.350582,4.83398 -6.12793,0 -9.375,-4.83398 -3.222656,-4.8584 -3.222656,-14.0625 0,-9.22852 3.222656,-14.0625 3.24707,-4.8584 9.375,-4.8584 z m 31.811522,3.90625 q -3.80859,0 -5.7373,3.75976 -1.9043,3.73535 -1.9043,11.25489 0,7.49511 1.9043,11.25488 1.92871,3.73535 5.7373,3.73535 3.83301,0 5.73731,-3.73535 1.92871,-3.75977 1.92871,-11.25488 0,-7.51954 -1.92871,-11.25489 -1.9043,-3.75976 -5.73731,-3.75976 z m 0,-3.90625 q 6.12793,0 9.35059,4.8584 3.24707,4.83398 3.24707,14.0625 0,9.2041 -3.24707,14.0625 -3.22266,4.83398 -9.35059,4.83398 -6.12793,0 -9.375,-4.83398 -3.22265,-4.8584 -3.22265,-14.0625 0,-9.22852 3.22265,-14.0625 3.24707,-4.8584 9.375,-4.8584 z m 31.81152,3.90625 q -3.80859,0 -5.7373,3.75976 -1.9043,3.73535 -1.9043,11.25489 0,7.49511 1.9043,11.25488 1.92871,3.73535 5.7373,3.73535 3.83301,0 5.73731,-3.73535 1.92871,-3.75977 1.92871,-11.25488 0,-7.51954 -1.92871,-11.25489 -1.9043,-3.75976 -5.73731,-3.75976 z m 0,-3.90625 q 6.12793,0 9.35059,4.8584 3.24707,4.83398 3.24707,14.0625 0,9.2041 -3.24707,14.0625 -3.22266,4.83398 -9.35059,4.83398 -6.12792,0 -9.375,-4.83398 -3.22265,-4.8584 -3.22265,-14.0625 0,-9.22852 3.22265,-14.0625 3.24708,-4.8584 9.375,-4.8584 z m 31.81153,3.90625 q -3.8086,0 -5.73731,3.75976 -1.90429,3.73535 -1.90429,11.25489 0,7.49511 1.90429,11.25488 1.92871,3.73535 5.73731,3.73535 3.83301,0 5.7373,-3.73535 1.92871,-3.75977 1.92871,-11.25488 0,-7.51954 -1.92871,-11.25489 -1.90429,-3.75976 -5.7373,-3.75976 z m 0,-3.90625 q 6.12793,0 9.35058,4.8584 3.24707,4.83398 3.24707,14.0625 0,9.2041 -3.24707,14.0625 -3.22265,4.83398 -9.35058,4.83398 -6.12793,0 -9.375,-4.83398 -3.22266,-4.8584 -3.22266,-14.0625 0,-9.22852 3.22266,-14.0625 3.24707,-4.8584 9.375,-4.8584 z m 31.81152,3.90625 q -3.80859,0 -5.7373,3.75976 -1.9043,3.73535 -1.9043,11.25489 0,7.49511 1.9043,11.25488 1.92871,3.73535 5.7373,3.73535 3.83301,0 5.73731,-3.73535 1.92871,-3.75977 1.92871,-11.25488 0,-7.51954 -1.92871,-11.25489 -1.9043,-3.75976 -5.73731,-3.75976 z m 0,-3.90625 q 6.12793,0 9.35059,4.8584 3.24707,4.83398 3.24707,14.0625 0,9.2041 -3.24707,14.0625 -3.22266,4.83398 -9.35059,4.83398 -6.12793,0 -9.375,-4.83398 -3.22265,-4.8584 -3.22265,-14.0625 0,-9.22852 3.22265,-14.0625 3.24707,-4.8584 9.375,-4.8584 z"
         id="path55" /></g><path
       style="font-size:50px;line-height:1.25;font-family:System-ui;-inkscape-font-specification:System-ui;fill:#ff0000;stroke-width:0.264583"
       d="m -4.7200623,164.6721 q -3.8085937,0 -5.7373047,3.75977 -1.904297,3.73535 -1.904297,11.25488 0,7.49512 1.904297,11.25489 1.928711,3.73535 5.7373047,3.73535 3.83300786,0 5.7373047,-3.73535 1.928711,-3.75977 1.928711,-11.25489 0,-7.51953 -1.928711,-11.25488 -1.90429684,-3.75977 -5.7373047,-3.75977 z m 0,-3.90625 q 6.1279297,0 9.350586,4.8584 3.2470703,4.83399 3.2470703,14.0625 0,9.2041 -3.2470703,14.0625 -3.2226563,4.83399 -9.350586,4.83399 -6.1279297,0 -9.3749997,-4.83399 -3.222657,-4.8584 -3.222657,-14.0625 0,-9.22851 3.222657,-14.0625 3.24707,-4.8584 9.3749997,-4.8584 z m 22.1191403,32.95899 h 8.056641 v -27.80762 l -8.764648,1.75781 v -4.49218 l 8.71582,-1.75782 h 4.93164 v 32.29981 h 8.056641 v 4.15039 H 17.399078 Z m 31.811524,0 h 8.05664 v -27.80762 l -8.764648,1.75781 v -4.49218 l 8.71582,-1.75782 h 4.931641 v 32.29981 h 8.056641 v 4.15039 H 49.210602 Z M 90.714508,164.6721 q -3.808594,0 -5.737305,3.75977 -1.904297,3.73535 -1.904297,11.25488 0,7.49512 1.904297,11.25489 1.928711,3.73535 5.737305,3.73535 3.833008,0 5.737305,-3.73535 1.928711,-3.75977 1.928711,-11.25489 0,-7.51953 -1.928711,-11.25488 -1.904297,-3.75977 -5.737305,-3.75977 z m 0,-3.90625 q 6.12793,0 9.350582,4.8584 3.24707,4.83399 3.24707,14.0625 0,9.2041 -3.24707,14.0625 -3.222652,4.83399 -9.350582,4.83399 -6.12793,0 -9.375,-4.83399 -3.222656,-4.8584 -3.222656,-14.0625 0,-9.22851 3.222656,-14.0625 3.24707,-4.8584 9.375,-4.8584 z m 31.811522,3.90625 q -3.80859,0 -5.7373,3.75977 -1.9043,3.73535 -1.9043,11.25488 0,7.49512 1.9043,11.25489 1.92871,3.73535 5.7373,3.73535 3.83301,0 5.73731,-3.73535 1.92871,-3.75977 1.92871,-11.25489 0,-7.51953 -1.92871,-11.25488 -1.9043,-3.75977 -5.73731,-3.75977 z m 0,-3.90625 q 6.12793,0 9.35059,4.8584 3.24707,4.83399 3.24707,14.0625 0,9.2041 -3.24707,14.0625 -3.22266,4.83399 -9.35059,4.83399 -6.12793,0 -9.375,-4.83399 -3.22265,-4.8584 -3.22265,-14.0625 0,-9.22851 3.22265,-14.0625 3.24707,-4.8584 9.375,-4.8584 z m 22.11914,32.95899 h 8.05664 v -27.80762 l -8.76465,1.75781 v -4.49218 l 8.71582,-1.75782 h 4.93165 v 32.29981 h 8.05664 v 4.15039 h -20.9961 z m 41.50391,-29.05274 q -3.8086,0 -5.73731,3.75977 -1.90429,3.73535 -1.90429,11.25488 0,7.49512 1.90429,11.25489 1.92871,3.73535 5.73731,3.73535 3.83301,0 5.7373,-3.73535 1.92871,-3.75977 1.92871,-11.25489 0,-7.51953 -1.92871,-11.25488 -1.90429,-3.75977 -5.7373,-3.75977 z m 0,-3.90625 q 6.12793,0 9.35058,4.8584 3.24707,4.83399 3.24707,14.0625 0,9.2041 -3.24707,14.0625 -3.22265,4.83399 -9.35058,4.83399 -6.12793,0 -9.375,-4.83399 -3.22266,-4.8584 -3.22266,-14.0625 0,-9.22851 3.22266,-14.0625 3.24707,-4.8584 9.375,-4.8584 z m 31.81152,3.90625 q -3.80859,0 -5.7373,3.75977 -1.9043,3.73535 -1.9043,11.25488 0,7.49512 1.9043,11.25489 1.92871,3.73535 5.7373,3.73535 3.83301,0 5.73731,-3.73535 1.92871,-3.75977 1.92871,-11.25489 0,-7.51953 -1.92871,-11.25488 -1.9043,-3.75977 -5.73731,-3.75977 z m 0,-3.90625 q 6.12793,0 9.35059,4.8584 3.24707,4.83399 3.24707,14.0625 0,9.2041 -3.24707,14.0625 -3.22266,4.83399 -9.35059,4.83399 -6.12793,0 -9.375,-4.83399 -3.22265,-4.8584 -3.22265,-14.0625 0,-9.22851 3.22265,-14.0625 3.24707,-4.8584 9.375,-4.8584 z"
       id="text53"
       aria-label="01100100" /><g
       id="g24"
       inkscape:label="pencil"
       transform="rotate(18.771817,182.93999,167.93362)"><path
         id="path27"
         style="fill:none;stroke:#f9f9f9;stroke-width:15;stroke-linecap:round;stroke-dasharray:none;stroke-opacity:1"
         inkscape:label="halo"
         d="m 142.17002,160.85732 29.39484,-82.323769 c 1.40355,-3.930807 -0.63093,-8.225052 -4.56174,-9.628605 L 134.10514,57.15827 c -3.9308,-1.403549 -8.22505,0.630936 -9.6286,4.561743 L 95.081697,144.04379 m 0.03167,0.0174 8.834963,49.49558 38.1857,-32.70621"
         sodipodi:nodetypes="csssscccc" /><path
         id="rect21"
         style="fill:#ff0000;stroke:#000000;stroke-width:5;stroke-linecap:round;stroke-dasharray:none;stroke-opacity:1"
         d="m 134.10514,57.15827 c -3.93081,-1.403552 -8.22505,0.630928 -9.6286,4.561743 l -1.46056,4.090468 -1.46038,4.089983 -2.53361,7.095659 7.09518,2.53343 32.89797,11.746677 7.09517,2.53343 2.53361,-7.09566 1.46038,-4.089982 1.46056,-4.090468 c 1.40355,-3.930815 -0.63093,-8.225051 -4.56174,-9.628604 z"
         inkscape:label="pencil eraser" /><path
         id="rect22"
         style="fill:#999999;stroke:#000000;stroke-width:5;stroke-linecap:round;stroke-dasharray:none;stroke-opacity:1"
         inkscape:label="metal ring"
         d="m 119.02199,76.996123 47.08832,16.813537 -1.68135,4.708827 -47.08832,-16.813536 z" /><path
         id="rect23"
         style="fill:#ffcc00;stroke:#000000;stroke-width:5;stroke-linecap:round;stroke-dasharray:none;stroke-opacity:1"
         inkscape:label="pencil body"
         d="M 117.34064,81.704951 164.42896,98.518487 142.17004,160.85726 95.081718,144.04373 Z" /><path
         style="fill:#deaa87;stroke:#000000;stroke-width:5;stroke-linecap:butt;stroke-linejoin:miter;stroke-dasharray:none;stroke-opacity:1"
         d="m 95.113732,144.0609 8.834678,49.49561 38.18593,-32.70625 z"
         id="path23"
         inkscape:label="wood tip" /><path
         style="fill:#1a1a1a;stroke:#000000;stroke-width:5;stroke-linecap:butt;stroke-linejoin:miter;stroke-dasharray:none;stroke-opacity:1"
         d="m 99.531068,168.80871 23.510302,8.39468 -19.09297,16.35306 z"
         id="path24"
         inkscape:label="pencil tip" /><path
         style="fill:none;stroke:#000000;stroke-width:5;stroke-linecap:butt;stroke-linejoin:miter;stroke-dasharray:none;stroke-opacity:1"
         d="M 128.87919,85.824952 106.62027,148.16373"
         id="path25" /><path
         style="fill:none;stroke:#000000;stroke-width:5;stroke-linecap:butt;stroke-linejoin:miter;stroke-dasharray:none;stroke-opacity:1"
         d="M 152.89038,94.398479 130.63146,156.73726"
         id="path26" /></g></g></svg>
