<?xml version="1.0" encoding="UTF-8" standalone="no"?>
<!-- Created with Inkscape (http://www.inkscape.org/) -->

<svg
   width="147.73196mm"
   height="205.80315mm"
   viewBox="0 0 147.73196 205.80315"
   version="1.1"
   id="svg1"
   inkscape:version="1.3.2 (1:1.3.2+202311252150+091e20ef0f)"
   sodipodi:docname="PluginIcon.svg"
   xmlns:inkscape="http://www.inkscape.org/namespaces/inkscape"
   xmlns:sodipodi="http://sodipodi.sourceforge.net/DTD/sodipodi-0.dtd"
   xmlns="http://www.w3.org/2000/svg"
   xmlns:svg="http://www.w3.org/2000/svg">
  <sodipodi:namedview
     id="namedview1"
     pagecolor="#e6e6e6"
     bordercolor="#666666"
     borderopacity="1.0"
     inkscape:showpageshadow="2"
     inkscape:pageopacity="0.0"
     inkscape:pagecheckerboard="0"
     inkscape:deskcolor="#d1d1d1"
     inkscape:document-units="mm"
     showguides="true"
     inkscape:zoom="0.70021044"
     inkscape:cx="119.24986"
     inkscape:cy="345.61039"
     inkscape:window-width="1920"
     inkscape:window-height="1023"
     inkscape:window-x="0"
     inkscape:window-y="33"
     inkscape:window-maximized="1"
     inkscape:current-layer="g26" />
  <defs
     id="defs1" />
  <g
     inkscape:label="Layer 1"
     inkscape:groupmode="layer"
     id="layer1"
     transform="translate(-0.59035656,7.215158)">
    <g
       id="g25"
       inkscape:label="layers">
      <rect
         style="fill:#1a1a1a;stroke:#1a1a1a;stroke-width:0.499999;stroke-linecap:round"
         id="rect20-5"
         width="127.39567"
         height="10.842898"
         x="0.84035605"
         y="60.362049" />
      <rect
         style="fill:#1a1a1a;stroke:#1a1a1a;stroke-width:0.499999;stroke-linecap:round"
         id="rect20-2"
         width="127.39567"
         height="10.842898"
         x="0.84035605"
         y="81.550888" />
      <rect
         style="fill:#1a1a1a;stroke:#1a1a1a;stroke-width:0.499999;stroke-linecap:round"
         id="rect21"
         width="127.39567"
         height="10.842898"
         x="0.84035605"
         y="102.73973" />
      <rect
         style="fill:#1a1a1a;stroke:#1a1a1a;stroke-width:0.499999;stroke-linecap:round"
         id="rect22"
         width="127.39567"
         height="10.842898"
         x="0.84035605"
         y="123.92857" />
      <rect
         style="fill:#1a1a1a;stroke:#1a1a1a;stroke-width:0.499999;stroke-linecap:round"
         id="rect23"
         width="127.39567"
         height="10.842898"
         x="0.84035605"
         y="145.1174" />
      <rect
         style="fill:#1a1a1a;stroke:#1a1a1a;stroke-width:0.499999;stroke-linecap:round"
         id="rect24"
         width="127.39567"
         height="10.842898"
         x="0.84035605"
         y="166.30624" />
      <rect
         style="fill:#1a1a1a;stroke:#1a1a1a;stroke-width:0.499999;stroke-linecap:round"
         id="rect25"
         width="127.39567"
         height="10.842898"
         x="0.84035605"
         y="187.49509" />
    </g>
    <g
       id="g26"
       inkscape:label="pencil">
      <path
         id="rect16-7"
         style="fill:#ff0000;stroke:#f9f9f9;stroke-width:12;stroke-linecap:round;stroke-dasharray:none"
         d="m 102.56357,-1.2121753 c -3.188061,0.087081 -6.151319,2.04247021 -7.380426,5.2043331 l -3.339848,8.5912072 -3.339331,8.59069 -2.958476,7.609872 -3.011702,7.747847 -30.803805,79.242706 -2.875276,7.39593 3.093868,26.5405 0.0052,0.0424 0.0052,0.0424 3.084049,26.45626 20.142957,-17.42736 20.271631,-17.53846 2.875277,-7.39593 h -5.17e-4 l 30.804319,-79.242189 0.23306,0.09043 3.01171,-7.748364 -0.23306,-0.09043 2.95847,-7.609871 3.33933,-8.590691 3.33933,-8.59069 c 1.63881,-4.215817 -0.44428,-8.933037 -4.67103,-10.576098 L 105.77061,-0.65200279 c -1.05669,-0.41076581 -2.14435,-0.58919941 -3.20704,-0.56017251 z"
         inkscape:label="outline" />
      <path
         id="rect16"
         style="fill:#ff0000;stroke:#1a1a1a;stroke-width:3;stroke-linecap:round;stroke-dasharray:none"
         d="m 105.77056,-0.65213699 c -4.22674,-1.64306481 -8.948838,0.4285159 -10.587649,4.64433779 l -3.339492,8.5907552 -3.339489,8.590755 -2.958281,7.61011 7.629376,2.965771 31.344025,12.184375 7.62936,2.965773 2.95829,-7.61011 3.33949,-8.590755 3.33949,-8.590756 c 1.63881,-4.215822 -0.44435,-8.932818 -4.6711,-10.575881 z" />
      <path
         id="rect17"
         style="fill:#b3b3b3;stroke:#1a1a1a;stroke-width:3;stroke-linecap:round;stroke-dasharray:none"
         d="M 85.545728,28.783625 132.38152,46.990123 129.36957,54.738271 82.533786,36.531774 Z" />
      <path
         id="rect18"
         style="fill:#ffcc00;stroke:#1a1a1a;stroke-width:3;stroke-linecap:round;stroke-dasharray:none"
         d="M 82.533785,36.531776 129.13651,54.647677 98.332569,133.8901 51.729842,115.7742 Z" />
      <path
         id="rect19"
         style="fill:#b3b3b3;stroke:#1a1a1a;stroke-width:3;stroke-linecap:round;stroke-dasharray:none"
         d="m 51.729845,115.77419 46.602727,18.1159 -2.875036,7.39596 -46.602727,-18.1159 z" />
      <path
         style="fill:#d38d5f;stroke:#1a1a1a;stroke-width:3;stroke-linecap:butt;stroke-linejoin:miter;stroke-dasharray:none;stroke-opacity:1"
         d="m 48.854805,123.17014 6.18806,53.08153 40.414665,-34.96562 z"
         id="path19" />
      <path
         style="fill:#1a1a1a;stroke:#1a1a1a;stroke-width:3;stroke-linecap:butt;stroke-linejoin:miter;stroke-dasharray:none;stroke-opacity:1"
         d="m 51.948838,149.7109 23.236979,9.11365 -20.142952,17.42712 -3.084172,-26.4562"
         id="path20" />
    </g>
  </g>
</svg>
